<svg xmlns="http://www.w3.org/2000/svg" viewBox="0 0 267.27 306.2"><defs><style>.cls-1{fill:#ff9700;}</style></defs><title>Asset 1</title><g id="Layer_2" data-name="Layer 2"><g id="Layer_1-2" data-name="Layer 1"><path class="cls-1" d="M267.2,65.26c0-12-7.19-20.06-19.29-21.59-2.29-.32-4.65-.57-6.94-.83-6.82-.83-13.24-1.53-19.42-2.87-24.13-5.28-47.5-16.17-73.35-34.25-4.27-3-9-5.73-14.52-5.73S123.5,2.74,119.23,5.67C84.65,29.42,53.52,41.51,21.3,43.55,7.36,44.44,0,52.34,0,66.41V91.75C0,115.12,0,139.25.23,163.06a128.37,128.37,0,0,0,3.31,27.32c5,21.78,16.3,41.39,34.64,59.92,22.86,23.11,51.51,40.94,87.55,54.5a22.46,22.46,0,0,0,7.77,1.4,24.16,24.16,0,0,0,9.55-2c2-.89,4-1.72,6-2.55l.19-.06c8.72-3.76,17.7-7.64,26.49-12.22,29.29-15.47,51.45-33.75,67.74-55.91,14.65-19.87,22.22-39.86,23.12-61.13.19-4.07.32-8.4.38-13.31l.32-39.35v-16c0-12.86,0-25.66-.07-38.46Zm-15.28,53.68v.44l-.32,39.48c-.07,4.71-.19,8.85-.32,12.8-.76,18.15-7.38,35.4-20.18,52.72-14.9,20.25-35.4,37.06-62.59,51.44-8.21,4.33-16.94,8.09-25.4,11.72l-.19.06c-2,.89-4,1.72-6,2.61a8.76,8.76,0,0,1-3.44.7,7.14,7.14,0,0,1-2.42-.38c-33.94-12.8-60.81-29.48-82.07-50.94C32.76,223.11,22.77,205.92,18.44,187a110.44,110.44,0,0,1-2.93-24.07c-.25-23.68-.19-47.82-.19-71.12V66.47c0-2.93.44-5.09,1.34-6s2.8-1.46,5.66-1.65C57.4,56.54,91,43.68,127.89,18.21c2.87-2,4.78-2.93,5.79-2.93s2.93,1,5.79,3C167,37.5,192.14,49.16,218.3,54.89A199.94,199.94,0,0,0,239.25,58c2.29.25,4.52.51,6.81.83,4.46.57,5.92,2.16,5.92,6.43v38.39Zm0,0"/></g></g></svg>